<mxfile host="app.diagrams.net" agent="Mozilla/5.0 (Windows NT 10.0; Win64; x64) AppleWebKit/537.36 (KHTML, like Gecko) Chrome/138.0.0.0 Safari/537.36" version="28.1.1">
  <diagram name="Page-1" id="IOM1Bm00cSVHN6o2WnpH">
    <mxGraphModel dx="1426" dy="743" grid="1" gridSize="10" guides="1" tooltips="1" connect="1" arrows="1" fold="1" page="1" pageScale="1" pageWidth="850" pageHeight="1100" math="0" shadow="0">
      <root>
        <mxCell id="0" />
        <mxCell id="1" parent="0" />
        <mxCell id="d0kBRnl-yBGZbx-vWgFv-1" value="" style="rounded=0;whiteSpace=wrap;html=1;" vertex="1" parent="1">
          <mxGeometry x="160" y="120" width="600" height="400" as="geometry" />
        </mxCell>
        <mxCell id="d0kBRnl-yBGZbx-vWgFv-3" value="" style="rounded=0;whiteSpace=wrap;html=1;" vertex="1" parent="1">
          <mxGeometry x="170" y="240" width="80" height="40" as="geometry" />
        </mxCell>
        <mxCell id="d0kBRnl-yBGZbx-vWgFv-5" value="" style="rounded=0;whiteSpace=wrap;html=1;" vertex="1" parent="1">
          <mxGeometry x="170" y="300" width="80" height="40" as="geometry" />
        </mxCell>
        <mxCell id="d0kBRnl-yBGZbx-vWgFv-6" value="" style="rounded=0;whiteSpace=wrap;html=1;" vertex="1" parent="1">
          <mxGeometry x="660" y="240" width="80" height="40" as="geometry" />
        </mxCell>
        <mxCell id="d0kBRnl-yBGZbx-vWgFv-7" value="" style="rounded=0;whiteSpace=wrap;html=1;" vertex="1" parent="1">
          <mxGeometry x="660" y="300" width="80" height="40" as="geometry" />
        </mxCell>
        <mxCell id="d0kBRnl-yBGZbx-vWgFv-8" value="AF" style="ellipse;whiteSpace=wrap;html=1;aspect=fixed;" vertex="1" parent="1">
          <mxGeometry x="329" y="180" width="30" height="30" as="geometry" />
        </mxCell>
        <mxCell id="d0kBRnl-yBGZbx-vWgFv-9" value="SF" style="ellipse;whiteSpace=wrap;html=1;aspect=fixed;" vertex="1" parent="1">
          <mxGeometry x="600" y="180" width="30" height="30" as="geometry" />
        </mxCell>
        <mxCell id="d0kBRnl-yBGZbx-vWgFv-10" value="Table" style="rounded=0;whiteSpace=wrap;html=1;" vertex="1" parent="1">
          <mxGeometry x="425" y="150" width="90" height="20" as="geometry" />
        </mxCell>
        <mxCell id="d0kBRnl-yBGZbx-vWgFv-12" value="&lt;font style=&quot;font-size: 18px;&quot;&gt;T&lt;/font&gt;" style="text;html=1;align=center;verticalAlign=middle;whiteSpace=wrap;rounded=0;rotation=-160;" vertex="1" parent="1">
          <mxGeometry x="515" y="180" width="60" height="30" as="geometry" />
        </mxCell>
        <mxCell id="d0kBRnl-yBGZbx-vWgFv-13" value="" style="endArrow=none;dashed=1;html=1;dashPattern=1 3;strokeWidth=2;rounded=0;entryX=0.4;entryY=0.525;entryDx=0;entryDy=0;entryPerimeter=0;exitX=0.442;exitY=0.625;exitDx=0;exitDy=0;exitPerimeter=0;" edge="1" parent="1" source="d0kBRnl-yBGZbx-vWgFv-1">
          <mxGeometry width="50" height="50" relative="1" as="geometry">
            <mxPoint x="425" y="320" as="sourcePoint" />
            <mxPoint x="425" y="240" as="targetPoint" />
          </mxGeometry>
        </mxCell>
        <mxCell id="d0kBRnl-yBGZbx-vWgFv-14" value="" style="endArrow=none;dashed=1;html=1;dashPattern=1 3;strokeWidth=2;rounded=0;entryX=0.4;entryY=0.525;entryDx=0;entryDy=0;entryPerimeter=0;exitX=0.442;exitY=0.625;exitDx=0;exitDy=0;exitPerimeter=0;" edge="1" parent="1">
          <mxGeometry width="50" height="50" relative="1" as="geometry">
            <mxPoint x="514" y="370" as="sourcePoint" />
            <mxPoint x="514" y="240" as="targetPoint" />
          </mxGeometry>
        </mxCell>
        <mxCell id="d0kBRnl-yBGZbx-vWgFv-15" value="" style="endArrow=none;html=1;rounded=0;entryX=0.4;entryY=0.375;entryDx=0;entryDy=0;entryPerimeter=0;dashed=1;dashPattern=12 12;strokeWidth=2;" edge="1" parent="1" target="d0kBRnl-yBGZbx-vWgFv-1">
          <mxGeometry width="50" height="50" relative="1" as="geometry">
            <mxPoint x="270" y="270" as="sourcePoint" />
            <mxPoint x="340" y="220" as="targetPoint" />
          </mxGeometry>
        </mxCell>
        <mxCell id="d0kBRnl-yBGZbx-vWgFv-16" value="" style="endArrow=none;html=1;rounded=0;entryX=0.4;entryY=0.375;entryDx=0;entryDy=0;entryPerimeter=0;dashed=1;dashPattern=12 12;strokeWidth=2;" edge="1" parent="1">
          <mxGeometry width="50" height="50" relative="1" as="geometry">
            <mxPoint x="530" y="270" as="sourcePoint" />
            <mxPoint x="660" y="270" as="targetPoint" />
          </mxGeometry>
        </mxCell>
        <mxCell id="d0kBRnl-yBGZbx-vWgFv-17" value="" style="endArrow=none;html=1;rounded=0;entryX=0.4;entryY=0.375;entryDx=0;entryDy=0;entryPerimeter=0;dashed=1;dashPattern=12 12;strokeWidth=2;" edge="1" parent="1">
          <mxGeometry width="50" height="50" relative="1" as="geometry">
            <mxPoint x="270" y="319.5" as="sourcePoint" />
            <mxPoint x="400" y="319.5" as="targetPoint" />
          </mxGeometry>
        </mxCell>
        <mxCell id="d0kBRnl-yBGZbx-vWgFv-18" value="" style="endArrow=none;html=1;rounded=0;entryX=0.4;entryY=0.375;entryDx=0;entryDy=0;entryPerimeter=0;dashed=1;dashPattern=12 12;strokeWidth=2;" edge="1" parent="1">
          <mxGeometry width="50" height="50" relative="1" as="geometry">
            <mxPoint x="530" y="319.5" as="sourcePoint" />
            <mxPoint x="660" y="319.5" as="targetPoint" />
          </mxGeometry>
        </mxCell>
        <mxCell id="d0kBRnl-yBGZbx-vWgFv-19" value="" style="endArrow=none;html=1;rounded=0;entryX=0.4;entryY=0.375;entryDx=0;entryDy=0;entryPerimeter=0;dashed=1;dashPattern=12 12;strokeWidth=2;" edge="1" parent="1">
          <mxGeometry width="50" height="50" relative="1" as="geometry">
            <mxPoint x="270" y="364" as="sourcePoint" />
            <mxPoint x="400" y="364" as="targetPoint" />
          </mxGeometry>
        </mxCell>
        <mxCell id="d0kBRnl-yBGZbx-vWgFv-20" value="" style="endArrow=none;html=1;rounded=0;entryX=0.4;entryY=0.375;entryDx=0;entryDy=0;entryPerimeter=0;dashed=1;dashPattern=12 12;strokeWidth=2;" edge="1" parent="1">
          <mxGeometry width="50" height="50" relative="1" as="geometry">
            <mxPoint x="530" y="365" as="sourcePoint" />
            <mxPoint x="660" y="365" as="targetPoint" />
          </mxGeometry>
        </mxCell>
        <mxCell id="d0kBRnl-yBGZbx-vWgFv-21" value="Parents" style="text;html=1;align=center;verticalAlign=middle;whiteSpace=wrap;rounded=0;" vertex="1" parent="1">
          <mxGeometry x="690" y="260" width="50" height="20" as="geometry" />
        </mxCell>
        <mxCell id="d0kBRnl-yBGZbx-vWgFv-22" value="Parents" style="text;html=1;align=center;verticalAlign=middle;whiteSpace=wrap;rounded=0;" vertex="1" parent="1">
          <mxGeometry x="690" y="320" width="50" height="20" as="geometry" />
        </mxCell>
        <mxCell id="d0kBRnl-yBGZbx-vWgFv-23" value="Parents" style="text;html=1;align=center;verticalAlign=middle;whiteSpace=wrap;rounded=0;" vertex="1" parent="1">
          <mxGeometry x="170" y="260" width="50" height="20" as="geometry" />
        </mxCell>
        <mxCell id="d0kBRnl-yBGZbx-vWgFv-24" value="Parents" style="text;html=1;align=center;verticalAlign=middle;whiteSpace=wrap;rounded=0;" vertex="1" parent="1">
          <mxGeometry x="170" y="320" width="50" height="20" as="geometry" />
        </mxCell>
        <mxCell id="d0kBRnl-yBGZbx-vWgFv-25" value="Wolves" style="text;html=1;align=center;verticalAlign=middle;whiteSpace=wrap;rounded=0;" vertex="1" parent="1">
          <mxGeometry x="303" y="300" width="50" height="20" as="geometry" />
        </mxCell>
        <mxCell id="d0kBRnl-yBGZbx-vWgFv-27" value="Lions" style="text;html=1;align=center;verticalAlign=middle;whiteSpace=wrap;rounded=0;" vertex="1" parent="1">
          <mxGeometry x="300" y="250" width="50" height="20" as="geometry" />
        </mxCell>
        <mxCell id="d0kBRnl-yBGZbx-vWgFv-29" value="Bears" style="text;html=1;align=center;verticalAlign=middle;whiteSpace=wrap;rounded=0;" vertex="1" parent="1">
          <mxGeometry x="564" y="300" width="50" height="20" as="geometry" />
        </mxCell>
        <mxCell id="d0kBRnl-yBGZbx-vWgFv-30" value="AoL" style="text;html=1;align=center;verticalAlign=middle;whiteSpace=wrap;rounded=0;" vertex="1" parent="1">
          <mxGeometry x="564" y="346" width="50" height="20" as="geometry" />
        </mxCell>
        <mxCell id="d0kBRnl-yBGZbx-vWgFv-31" value="Tigers" style="text;html=1;align=center;verticalAlign=middle;whiteSpace=wrap;rounded=0;" vertex="1" parent="1">
          <mxGeometry x="564" y="250" width="50" height="20" as="geometry" />
        </mxCell>
        <mxCell id="d0kBRnl-yBGZbx-vWgFv-33" value="Webelos" style="text;html=1;align=center;verticalAlign=middle;whiteSpace=wrap;rounded=0;" vertex="1" parent="1">
          <mxGeometry x="302" y="343" width="50" height="20" as="geometry" />
        </mxCell>
        <mxCell id="d0kBRnl-yBGZbx-vWgFv-34" value="" style="shape=tape;whiteSpace=wrap;html=1;" vertex="1" parent="1">
          <mxGeometry x="400" y="248" width="20" height="20" as="geometry" />
        </mxCell>
        <mxCell id="d0kBRnl-yBGZbx-vWgFv-35" value="" style="shape=tape;whiteSpace=wrap;html=1;" vertex="1" parent="1">
          <mxGeometry x="400" y="296" width="20" height="20" as="geometry" />
        </mxCell>
        <mxCell id="d0kBRnl-yBGZbx-vWgFv-36" value="" style="shape=tape;whiteSpace=wrap;html=1;" vertex="1" parent="1">
          <mxGeometry x="400" y="340" width="20" height="20" as="geometry" />
        </mxCell>
        <mxCell id="d0kBRnl-yBGZbx-vWgFv-37" value="" style="shape=tape;whiteSpace=wrap;html=1;" vertex="1" parent="1">
          <mxGeometry x="520" y="340" width="20" height="20" as="geometry" />
        </mxCell>
        <mxCell id="d0kBRnl-yBGZbx-vWgFv-38" value="" style="shape=tape;whiteSpace=wrap;html=1;" vertex="1" parent="1">
          <mxGeometry x="520" y="296" width="20" height="20" as="geometry" />
        </mxCell>
        <mxCell id="d0kBRnl-yBGZbx-vWgFv-39" value="" style="shape=tape;whiteSpace=wrap;html=1;" vertex="1" parent="1">
          <mxGeometry x="520" y="246" width="20" height="20" as="geometry" />
        </mxCell>
        <mxCell id="d0kBRnl-yBGZbx-vWgFv-40" value="Scout Master" style="shape=umlActor;verticalLabelPosition=bottom;verticalAlign=top;html=1;outlineConnect=0;" vertex="1" parent="1">
          <mxGeometry x="392" y="140" width="20" height="40" as="geometry" />
        </mxCell>
        <mxCell id="d0kBRnl-yBGZbx-vWgFv-42" value="Presenter" style="shape=umlActor;verticalLabelPosition=bottom;verticalAlign=top;html=1;outlineConnect=0;" vertex="1" parent="1">
          <mxGeometry x="554" y="160" width="20" height="40" as="geometry" />
        </mxCell>
        <mxCell id="d0kBRnl-yBGZbx-vWgFv-43" value="Den Leader" style="shape=umlActor;verticalLabelPosition=bottom;verticalAlign=top;html=1;outlineConnect=0;" vertex="1" parent="1">
          <mxGeometry x="318" y="440" width="20" height="40" as="geometry" />
        </mxCell>
        <mxCell id="d0kBRnl-yBGZbx-vWgFv-44" value="Den Leader" style="shape=umlActor;verticalLabelPosition=bottom;verticalAlign=top;html=1;outlineConnect=0;" vertex="1" parent="1">
          <mxGeometry x="575" y="440" width="20" height="40" as="geometry" />
        </mxCell>
        <mxCell id="d0kBRnl-yBGZbx-vWgFv-45" value="Den Leader" style="shape=umlActor;verticalLabelPosition=bottom;verticalAlign=top;html=1;outlineConnect=0;" vertex="1" parent="1">
          <mxGeometry x="454" y="440" width="20" height="40" as="geometry" />
        </mxCell>
        <mxCell id="d0kBRnl-yBGZbx-vWgFv-46" style="edgeStyle=orthogonalEdgeStyle;rounded=0;orthogonalLoop=1;jettySize=auto;html=1;exitX=0.5;exitY=1;exitDx=0;exitDy=0;" edge="1" parent="1" source="d0kBRnl-yBGZbx-vWgFv-1" target="d0kBRnl-yBGZbx-vWgFv-1">
          <mxGeometry relative="1" as="geometry" />
        </mxCell>
      </root>
    </mxGraphModel>
  </diagram>
</mxfile>
